<?xml version="1.0" encoding="UTF-8"?>
<svg version="1.1" xmlns="http://www.w3.org/2000/svg" width="612" height="408">
<path d="M0 0 C201.96 0 403.92 0 612 0 C612 134.64 612 269.28 612 408 C410.04 408 208.08 408 0 408 C0 273.36 0 138.72 0 0 Z " fill="#000000" transform="translate(0,0)"/>
<path d="M0 0 C0 47.19 0 94.38 0 143 C32.68506834 142.84167013 32.68506834 142.84167013 65.36987305 142.63964844 C71.69494629 142.62158203 71.69494629 142.62158203 74.65705872 142.6182251 C76.7235407 142.61208729 78.79000845 142.59802821 80.85639954 142.57769775 C83.9887476 142.54842334 87.1202212 142.5443757 90.25268555 142.54589844 C91.17153125 142.531506 92.09037695 142.51711357 93.03706646 142.502285 C97.22475985 142.52954198 99.4019565 142.61881094 103.00764465 144.91705322 C104.74761271 146.73613678 106.42786862 148.53483578 108 150.5 C110.42398104 153.42120792 113.01626878 155.64442272 116 158 C116.598125 158.763125 117.19625 159.52625 117.8125 160.3125 C120.24755144 163.30413463 122.9350037 165.61039073 125.90234375 168.05859375 C128.50796307 170.47012597 130.72714344 173.27257213 133 176 C76.24 176 19.48 176 -39 176 C-39.185625 151.53875 -39.37125 127.0775 -39.5625 101.875 C-39.64443604 94.15077637 -39.72637207 86.42655273 -39.81079102 78.46826172 C-39.85144043 69.03735352 -39.85144043 69.03735352 -39.85899353 64.62258911 C-39.86738119 61.53809376 -39.90110923 58.45499166 -39.95018005 55.37088013 C-40.01197126 51.43508383 -40.0304137 47.5013096 -40.01765049 43.56507325 C-40.02031851 42.12169199 -40.03814129 40.6782393 -40.07293618 39.23527503 C-40.32062832 28.46175327 -40.32062832 28.46175327 -36.99799919 24.78406143 C-31.51404908 21 -31.51404908 21 -28 21 C-28 20.34 -28 19.68 -28 19 C-24.53846154 16 -24.53846154 16 -22 16 C-22 15.34 -22 14.68 -22 14 C-20.65465186 13.06860513 -19.30128098 12.14745426 -17.91796875 11.2734375 C-14.86451925 9.24609628 -12.02612548 6.9504041 -9.1484375 4.68359375 C-8.43945312 4.12800781 -7.73046875 3.57242188 -7 3 C-6.31164062 2.43410156 -5.62328125 1.86820312 -4.9140625 1.28515625 C-3 0 -3 0 0 0 Z " fill="#E2AB3C" transform="translate(228,112)"/>
<path d="M0 0 C7.38704896 3.69352448 12.89068156 9.61335196 18 16 C20.55771666 18.68888162 23.14788299 21.12323583 26 23.5 C29.43835114 26.36529262 32.51837544 29.48766365 35.64892578 32.68310547 C37.45009697 34.52122888 39.25621721 36.35440072 41.0625 38.1875 C41.67416016 38.81591797 42.28582031 39.44433594 42.91601562 40.09179688 C43.51220703 40.69443359 44.10839844 41.29707031 44.72265625 41.91796875 C45.25640869 42.46219482 45.79016113 43.0064209 46.34008789 43.56713867 C48.12115602 45.10458371 49.88810001 45.98448602 52 47 C53.67578125 48.69921875 53.67578125 48.69921875 55.3125 50.6875 C58.68605653 54.67508716 62.27255085 58.34644302 66 62 C66.73347656 62.74507812 67.46695313 63.49015625 68.22265625 64.2578125 C70.37199562 66.37994505 72.54426431 68.44027188 74.76953125 70.48046875 C75.43017578 71.08697266 76.09082031 71.69347656 76.77148438 72.31835938 C78.14862481 73.57953009 79.52891354 74.83727042 80.91210938 76.09179688 C81.56630859 76.69443359 82.22050781 77.29707031 82.89453125 77.91796875 C83.49112549 78.46219482 84.08771973 79.0064209 84.70239258 79.56713867 C86 81 86 81 86 83 C86.54914063 83.24363281 87.09828125 83.48726563 87.6640625 83.73828125 C95.33705575 87.88272409 101.54260914 94.3146962 107 101 C108.485 101.99 108.485 101.99 110 103 C110 103.66 110 104.32 110 105 C110.5775 105.226875 111.155 105.45375 111.75 105.6875 C114 107 114 107 115.8046875 109.30078125 C118.11107548 112.13657146 120.51813411 114.22731117 123.375 116.5 C125.25 118 127.125 119.5 129 121 C130.03672852 121.70406982 131.07345703 122.40813965 132.14160156 123.13354492 C134.89513047 125.44753692 134.9903018 125.94617328 135.68115234 129.78051758 C135.68021082 131.23553469 135.6467926 132.690787 135.5859375 134.14453125 C135.57744781 134.91431808 135.56895813 135.68410492 135.56021118 136.47721863 C135.52675703 138.9237671 135.45150592 141.36695691 135.375 143.8125 C135.34488948 145.47586368 135.31751555 147.13927929 135.29296875 148.80273438 C135.22699369 152.86977371 135.12353843 156.93431851 135 161 C124.72110139 161.88915626 124.72110139 161.88915626 120.88476562 159.90722656 C119.16588107 158.41293494 117.71183071 156.87040989 116.25 155.125 C115.73179687 154.56941406 115.21359375 154.01382813 114.6796875 153.44140625 C111 149.4015377 111 149.4015377 111 147 C110.46375 146.773125 109.9275 146.54625 109.375 146.3125 C104.19952689 143.45237012 100.09870362 139.20117122 96 135 C95.45730469 134.47921875 94.91460937 133.9584375 94.35546875 133.421875 C92.86661925 131.98532701 91.42931493 130.4957947 90 129 C90 128.34 90 127.68 90 127 C89.44828125 126.77699219 88.8965625 126.55398437 88.328125 126.32421875 C85.2694324 124.58445903 83.1926188 122.34235518 80.75 119.8125 C76.87535313 115.84451938 72.90786576 112.07581256 68.69140625 108.47265625 C66.34537486 106.43003769 64.19919354 104.19919354 62 102 C60.50425817 100.68264939 59.0038304 99.37060947 57.5 98.0625 C54.86949432 95.74991968 52.43843176 93.48553969 50.25 90.75 C48.02646777 88.0323495 45.76473717 86.1426713 43 84 C40.52446315 81.64522105 38.26086492 79.341823 36.1875 76.625 C33.69129237 73.62955084 30.9253619 71.23592318 27.96484375 68.7109375 C26.27380564 67.2384232 24.68834946 65.73010063 23.125 64.125 C21.1844662 61.96047153 21.1844662 61.96047153 19 61 C19 74.86 19 88.72 19 103 C12.73 103 6.46 103 0 103 C0 69.01 0 35.02 0 0 Z " fill="#CF9426" transform="translate(267,127)"/>
<path d="M0 0 C15.51 0 31.02 0 47 0 C47 41.58 47 83.16 47 126 C43.10973391 124.05486695 40.72993848 122.11771008 37.5625 119.1875 C36.63566406 118.33542969 35.70882812 117.48335938 34.75390625 116.60546875 C32.91316452 114.8639443 31.09781499 113.09519616 29.30859375 111.30078125 C27.04623753 108.9626797 27.04623753 108.9626797 24.5 107 C21.79167399 104.83333919 19.42019064 102.48224681 17 100 C15.8553125 98.9171875 15.8553125 98.9171875 14.6875 97.8125 C13 96 13 96 13 94 C12.45859375 93.7628125 11.9171875 93.525625 11.359375 93.28125 C8.36749863 91.65652243 5.88840601 89.6498123 3.25 87.5 C2.26515625 86.7059375 1.2803125 85.911875 0.265625 85.09375 C-0.48203125 84.4028125 -1.2296875 83.711875 -2 83 C-2 82.34 -2 81.68 -2 81 C-1.34 81 -0.68 81 0 81 C0 54.27 0 27.54 0 0 Z " fill="#383F46" transform="translate(355,127)"/>
<path d="M0 0 C0.99 0 1.98 0 3 0 C3 47.19 3 94.38 3 143 C35.68506834 142.84167013 35.68506834 142.84167013 68.36987305 142.63964844 C74.69494629 142.62158203 74.69494629 142.62158203 77.65705872 142.6182251 C79.7235407 142.61208729 81.79000845 142.59802821 83.85639954 142.57769775 C86.9887476 142.54842334 90.1202212 142.5443757 93.25268555 142.54589844 C94.17153125 142.531506 95.09037695 142.51711357 96.03706646 142.502285 C100.22475985 142.52954198 102.4019565 142.61881094 106.00764465 144.91705322 C107.74761271 146.73613678 109.42786862 148.53483578 111 150.5 C113.42398104 153.42120792 116.01626878 155.64442272 119 158 C119.598125 158.763125 120.19625 159.52625 120.8125 160.3125 C123.24755144 163.30413463 125.9350037 165.61039073 128.90234375 168.05859375 C131.55191399 170.51080308 133.70553876 173.21179095 136 176 C119.37654417 176.02361252 102.75309398 176.04111566 86.12962532 176.05181217 C78.40688636 176.05691606 70.68415795 176.06384238 62.96142578 176.07543945 C56.2114034 176.08557078 49.46138868 176.09189604 42.7113589 176.09408849 C39.1544575 176.09536517 35.59757796 176.09824801 32.04068375 176.10573006 C11.34104815 176.14759659 -9.31453456 175.7152009 -30 175 C-28.625 173 -28.625 173 -27 171 C-26.34 171 -25.68 171 -25 171 C-25 170.01 -25 169.02 -25 168 C-22.69 167.67 -20.38 167.34 -18 167 C-18 166.01 -18 165.02 -18 164 C-17.3125 161.875 -17.3125 161.875 -16 160 C-14.33333333 159.66666667 -12.66666667 159.33333333 -11 159 C-9.87483915 157.16715557 -9.87483915 157.16715557 -9 155 C-7 152.75 -7 152.75 -5 151 C-4.34 151 -3.68 151 -3 151 C-1.42697607 144.87957603 -0.67882123 139.11881667 -0.5859375 132.80859375 C-0.56657135 131.97787857 -0.5472052 131.14716339 -0.5272522 130.29127502 C-0.46812385 127.67344998 -0.42134196 125.05557934 -0.375 122.4375 C-0.33675857 120.64776873 -0.2977034 118.85805464 -0.2578125 117.06835938 C-0.16247857 112.71238148 -0.07820581 108.35631769 0 104 C0.33 104 0.66 104 1 104 C1 70.34 1 36.68 1 2 C0.34 1.67 -0.32 1.34 -1 1 C-0.67 0.67 -0.34 0.34 0 0 Z " fill="#CD9122" transform="translate(225,112)"/>
<path d="M0 0 C0.99 0 1.98 0 3 0 C3 48.84 3 97.68 3 148 C-2.28 148 -7.56 148 -13 148 C-13.25488011 130.14546732 -13.45105899 112.29156085 -13.56993389 94.43560028 C-13.62660276 86.14426154 -13.70382581 77.85407536 -13.82983398 69.56347656 C-13.93964046 62.33539503 -14.01047805 55.10814821 -14.03497344 47.87925577 C-14.04928908 44.05274494 -14.08280262 40.22862144 -14.16303062 36.40287781 C-14.23802863 32.79712223 -14.26066857 29.19472213 -14.24418449 25.58826065 C-14.24862727 23.6427437 -14.30766639 21.69758813 -14.36862183 19.75302124 C-14.30087281 14.50135553 -14.23388031 11.31021158 -10.53748512 7.38514709 C-3.32757844 2 -3.32757844 2 0 2 C0 1.34 0 0.68 0 0 Z " fill="#E7B144" transform="translate(252,92)"/>
<path d="M0 0 C1.56717267 2.90663649 2.53102979 5.68777132 3.375 8.875 C4.67719364 13.20926216 5.86608972 16.61867575 9 20 C11.91057387 21.40926996 14.86733624 22.22833242 18 23 C18.77988281 23.20496094 19.55976563 23.40992187 20.36328125 23.62109375 C22.23646281 24.1035295 24.11755972 24.55505957 26 25 C23.16673936 26.54248131 20.59557907 27.42660929 17.4375 28.0625 C14.85979971 28.58847257 12.50492348 29.16502551 10 30 C10 30.66 10 31.32 10 32 C9.22269531 32.53109375 8.44539063 33.0621875 7.64453125 33.609375 C4.09606428 36.81714721 3.61906312 39.68493746 2.6875 44.25 C2.51927734 44.99507812 2.35105469 45.74015625 2.17773438 46.5078125 C1.76784592 48.33474389 1.38153286 50.16693711 1 52 C0.67 52 0.34 52 0 52 C-0.1959375 50.91460937 -0.391875 49.82921875 -0.59375 48.7109375 C-2.14325282 39.49064639 -2.14325282 39.49064639 -7.5 32.25 C-12.58578265 29.26402913 -18.35341722 27.59986512 -24 26 C-21.55883751 23.55883751 -19.44617972 23.38931877 -16.16796875 22.625 C-11.89915148 21.39434998 -8.01271164 19.58511388 -5.5625 15.75 C-5.376875 15.1725 -5.19125 14.595 -5 14 C-4.34 14 -3.68 14 -3 14 C-2.86722656 13.32453125 -2.73445313 12.6490625 -2.59765625 11.953125 C-2.42105469 11.06109375 -2.24445313 10.1690625 -2.0625 9.25 C-1.88847656 8.36828125 -1.71445312 7.4865625 -1.53515625 6.578125 C-1.07631512 4.36764947 -0.56663926 2.18487932 0 0 Z " fill="#F5BE4D" transform="translate(422,82)"/>
<path d="M0 0 C0.66 0.33 1.32 0.66 2 1 C1.0625 3.3125 1.0625 3.3125 -1 6 C-5.455 7.485 -5.455 7.485 -10 9 C-9.67 38.7 -9.34 68.4 -9 99 C-8.67 99 -8.34 99 -8 99 C-8 113.52 -8 128.04 -8 143 C-6.68 142.67 -5.36 142.34 -4 142 C-2.68 142 -1.36 142 0 142 C-0.33 141.01 -0.66 140.02 -1 139 C-0.33893326 137.66388137 0.32868812 136.3310006 1 135 C1.44049281 132.20275361 1.44049281 132.20275361 1.59765625 129.109375 C1.6764502 127.93528076 1.75524414 126.76118652 1.83642578 125.55151367 C1.91103027 124.29701416 1.98563477 123.04251465 2.0625 121.75 C2.1860083 119.82667847 2.1860083 119.82667847 2.31201172 117.86450195 C3.05698837 105.91758431 3.5877827 93.96267999 4 82 C4.33 82 4.66 82 5 82 C5 103.12 5 124.24 5 146 C-0.28 146 -5.56 146 -11 146 C-11.25488011 128.14546732 -11.45105899 110.29156085 -11.56993389 92.43560028 C-11.62660276 84.14426154 -11.70382581 75.85407536 -11.82983398 67.56347656 C-11.93964046 60.33539503 -12.01047805 53.10814821 -12.03497344 45.87925577 C-12.04928908 42.05274494 -12.08280262 38.22862144 -12.16303062 34.40287781 C-12.23802863 30.79712223 -12.26066857 27.19472213 -12.24418449 23.58826065 C-12.24862727 21.6427437 -12.30766639 19.69758813 -12.36862183 17.75302124 C-12.30027411 12.45494697 -12.2566741 9.29737145 -8.46717262 5.38514709 C-5.72228517 3.37178297 -2.9947192 1.61340235 0 0 Z " fill="#A47E37" transform="translate(250,94)"/>
<path d="M0 0 C2.8125 -0.3125 2.8125 -0.3125 6 0 C7.625 2.4375 7.625 2.4375 9 5 C9.639375 5.12375 10.27875 5.2475 10.9375 5.375 C13 6 13 6 14.875 9.4375 C15.19726562 10.0665625 15.51953125 10.695625 15.8515625 11.34375 C17.66948637 13.96551776 19.9876421 14.38383588 23 15 C23 16.65 23 18.3 23 20 C23.53625 20.20625 24.0725 20.4125 24.625 20.625 C27.91978009 22.53250426 30.59363628 25.04819384 33 28 C33 28.66 33 29.32 33 30 C34.98 30 36.96 30 39 30 C39 30.7425 39 31.485 39 32.25 C39.69726867 35.07557792 39.69726867 35.07557792 41.77734375 36.046875 C43.22665062 36.68635217 44.67719193 37.32303836 46.12890625 37.95703125 C48 39 48 39 49.375 41.6875 C49.58125 42.450625 49.7875 43.21375 50 44 C50.99 44.495 50.99 44.495 52 45 C52 45.66 52 46.32 52 47 C53.65 47.66 55.3 48.32 57 49 C57 49.66 57 50.32 57 51 C59.97 51.495 59.97 51.495 63 52 C62.98839844 51.41992188 62.97679687 50.83984375 62.96484375 50.2421875 C62.95582031 49.46101563 62.94679688 48.67984375 62.9375 47.875 C62.92589844 47.10929687 62.91429687 46.34359375 62.90234375 45.5546875 C63 43 63 43 63.46875 40.3125 C64.17242081 35.92490552 64.3587822 31.56003666 64.5625 27.125 C64.62727539 25.80628906 64.62727539 25.80628906 64.69335938 24.4609375 C64.79869339 22.30744203 64.89977649 20.15373936 65 18 C65.33 18 65.66 18 66 18 C66 29.55 66 41.1 66 53 C54 53 54 53 50.203125 50.4453125 C49.18617888 49.36839263 48.20104591 48.26053842 47.25 47.125 C46.73179687 46.56941406 46.21359375 46.01382813 45.6796875 45.44140625 C42 41.4015377 42 41.4015377 42 39 C41.46375 38.773125 40.9275 38.54625 40.375 38.3125 C35.19952689 35.45237012 31.09870362 31.20117122 27 27 C26.45730469 26.47921875 25.91460937 25.9584375 25.35546875 25.421875 C23.86661925 23.98532701 22.42931493 22.4957947 21 21 C21 20.34 21 19.68 21 19 C20.45085937 18.77957031 19.90171875 18.55914062 19.3359375 18.33203125 C16.27273766 16.58529021 14.0410098 14.21061943 11.625 11.6875 C8.62789789 8.61393355 5.65472763 5.57909348 2.3125 2.875 C1.549375 2.25625 0.78625 1.6375 0 1 C0 0.67 0 0.34 0 0 Z " fill="#A1701F" transform="translate(336,235)"/>
<path d="M0 0 C3.33646536 1.4163551 5.15544293 3.08171998 7.4375 5.875 C10.0762797 9.00432208 12.77362574 11.47122017 16 14 C16.598125 14.763125 17.19625 15.52625 17.8125 16.3125 C20.24755144 19.30413463 22.9350037 21.61039073 25.90234375 24.05859375 C28.50796307 26.47012597 30.72714344 29.27257213 33 32 C-10.56 32 -54.12 32 -99 32 C-99 31.67 -99 31.34 -99 31 C-87.7084289 30.82665012 -76.41676318 30.66034727 -65.125 30.5 C-63.87082653 30.48218412 -63.87082653 30.48218412 -62.59131622 30.46400833 C-33.39220827 30.05158757 -4.20235669 29.86432072 25 30 C25 29.34 25 28.68 25 28 C24.01 28 23.02 28 22 28 C20.5625 25.8125 20.5625 25.8125 19 23 C17.9171875 21.700625 17.9171875 21.700625 16.8125 20.375 C15 18 15 18 15 15 C14.236875 14.938125 13.47375 14.87625 12.6875 14.8125 C9.13396408 13.73817519 8.71089023 12.18847725 7 9 C6.01 8.34 5.02 7.68 4 7 C4 6.34 4 5.68 4 5 C2.68 4.34 1.36 3.68 0 3 C0 2.01 0 1.02 0 0 Z " fill="#B28029" transform="translate(328,256)"/>
<path d="M0 0 C0 23.43 0 46.86 0 71 C-0.33 71 -0.66 71 -1 71 C-2.19388403 28.1979874 -2.19388403 28.1979874 -2 7 C-6.55864375 8.09837024 -6.55864375 8.09837024 -9.4375 11.5 C-11 14 -11 14 -14.6875 15.3125 C-15.780625 15.539375 -16.87375 15.76625 -18 16 C-18.061875 16.61875 -18.12375 17.2375 -18.1875 17.875 C-19 20 -19 20 -21.3125 21.0625 C-22.6428125 21.5265625 -22.6428125 21.5265625 -24 22 C-25.33790641 22.99387334 -26.67218122 23.9926892 -28 25 C-28.66 25 -29.32 25 -30 25 C-29.67 23.35 -29.34 21.7 -29 20 C-28.34 20 -27.68 20 -27 20 C-27 19.34 -27 18.68 -27 18 C-23.53846154 15 -23.53846154 15 -21 15 C-21 14.34 -21 13.68 -21 13 C-19.65435543 12.06839991 -18.30009443 11.14771925 -16.9140625 10.27734375 C-13.8702359 8.24605538 -11.07902944 5.89874418 -8.24609375 3.5859375 C-5.87129291 1.9091216 -3.02167449 0 0 0 Z " fill="#E4C16B" transform="translate(227,113)"/>
<path d="M0 0 C0.99 0 1.98 0 3 0 C3 27.72 3 55.44 3 84 C2.67 84 2.34 84 2 84 C0.83612637 76.02746563 0.64768593 68.06813054 0.39453125 60.0234375 C0.35714844 58.9509375 0.31976563 57.8784375 0.28125 56.7734375 C0.25095703 55.80841309 0.22066406 54.84338867 0.18945312 53.84912109 C-0.01154362 50.82639936 -0.33510666 47.9572788 -1 45 C-1.66 44.67 -2.32 44.34 -3 44 C-3 41.69 -3 39.38 -3 37 C-2.34 37 -1.68 37 -1 37 C-0.10412395 24.6497088 0.11522956 12.38077633 0 0 Z " fill="#D1B169" transform="translate(252,92)"/>
<path d="M0 0 C17.49 0 34.98 0 53 0 C53 1.32 53 2.64 53 4 C35.51 4 18.02 4 0 4 C0 2.68 0 1.36 0 0 Z " fill="#A48745" transform="translate(267,241)"/>
<path d="M0 0 C3.35433109 0.94933899 6.69246505 1.89748835 10 3 C10 3.99 10 4.98 10 6 C10.66 6 11.32 6 12 6 C12 6.99 12 7.98 12 9 C14.97 9.33 17.94 9.66 21 10 C22 14.75 22 14.75 22 17 C23.66279327 18.0064275 25.32983484 19.00585407 27 20 C29 23 29 23 29 26 C29.78375 26.12375 30.5675 26.2475 31.375 26.375 C34 27 34 27 36 29 C36.8563027 31.63233792 37.38929927 34.29546818 38 37 C33.34072645 34.18276483 30.46898437 31.26951923 27 27 C25.7625 26.01 25.7625 26.01 24.5 25 C21.54946004 22.63956803 19.41540219 19.89848263 17 17 C15.35360035 15.64172029 13.68704193 14.30745749 12 13 C8.69560131 9.85679149 5.82268928 6.57540642 3 3 C2.01769502 1.9826127 1.02530403 0.97403883 0 0 Z " fill="#BF881D" transform="translate(298,198)"/>
<path d="M0 0 C3.58153059 1.79076529 5.46851925 3.01646912 8 6 C8 6.99 8 7.98 8 9 C6.35 9.33 4.7 9.66 3 10 C3.00523682 10.6798999 3.01047363 11.3597998 3.01586914 12.06030273 C3.03685071 15.18602549 3.04972687 18.31173335 3.0625 21.4375 C3.07087891 22.50677734 3.07925781 23.57605469 3.08789062 24.67773438 C3.09111328 25.73154297 3.09433594 26.78535156 3.09765625 27.87109375 C3.10289307 28.82943115 3.10812988 29.78776855 3.11352539 30.77514648 C3.02569682 33.27004443 2.82158888 35.62091881 2.51367188 38.08984375 C1.82590495 43.94747007 1.77037595 49.79913305 1.68359375 55.69140625 C1.66281265 56.87725815 1.64203156 58.06311005 1.62062073 59.28489685 C1.555643 63.04404337 1.49648271 66.80325512 1.4375 70.5625 C1.39426546 73.12305341 1.35064965 75.68360041 1.30664062 78.24414062 C1.20001523 84.49602637 1.09815615 90.74797586 1 97 C0.67 97 0.34 97 0 97 C0 64.99 0 32.98 0 0 Z " fill="#C29F5C" transform="translate(267,127)"/>
<path d="M0 0 C0.66 0 1.32 0 2 0 C2 5.61 2 11.22 2 17 C1.01 16.67 0.02 16.34 -1 16 C-1 14.68 -1 13.36 -1 12 C-1.99 13.485 -1.99 13.485 -3 15 C-3.66 15 -4.32 15 -5 15 C-5 13.02 -5 11.04 -5 9 C-6.65 9 -8.3 9 -10 9 C-9.83757812 9.64195313 -9.67515625 10.28390625 -9.5078125 10.9453125 C-8.84272586 14.94606442 -8.85276381 18.82642484 -8.875 22.875 C-8.87693359 23.73254883 -8.87886719 24.59009766 -8.88085938 25.47363281 C-8.94879646 35.99255866 -9.46251976 46.49626388 -10 57 C-10.33 57 -10.66 57 -11 57 C-11 40.83 -11 24.66 -11 8 C-8.03 7.01 -5.06 6.02 -2 5 C-1.67 3.68 -1.34 2.36 -1 1 C-0.67 0.67 -0.34 0.34 0 0 Z " fill="#EBBC58" transform="translate(251,95)"/>
<path d="M0 0 C0.26039063 0.58652344 0.52078125 1.17304687 0.7890625 1.77734375 C3.49467807 6.7434575 8.36051224 10.84514833 13 14 C10 14 7 14 4 14 C3.66355469 14.93585938 3.66355469 14.93585938 3.3203125 15.890625 C1.54726052 18.72331159 0.06303773 18.93255443 -3.125 19.75 C-4.03507812 19.99234375 -4.94515625 20.2346875 -5.8828125 20.484375 C-6.58148438 20.65453125 -7.28015625 20.8246875 -8 21 C-6.64285714 12.48214286 -6.64285714 12.48214286 -2 9 C-1.04234407 6.04722755 -0.487887 3.06213286 0 0 Z " fill="#E7B141" transform="translate(422,91)"/>
<path d="M0 0 C0.33 0 0.66 0 1 0 C1 7.92 1 15.84 1 24 C2.32 24 3.64 24 5 24 C5 24.99 5 25.98 5 27 C5.639375 27.103125 6.27875 27.20625 6.9375 27.3125 C7.9584375 27.6528125 7.9584375 27.6528125 9 28 C9.33 28.99 9.66 29.98 10 31 C8.35 31.66 6.7 32.32 5 33 C5 33.66 5 34.32 5 35 C4.195625 35.268125 3.39125 35.53625 2.5625 35.8125 C1.2940625 36.4003125 1.2940625 36.4003125 0 37 C-0.33 37.99 -0.66 38.98 -1 40 C-1.02490464 35.58919646 -1.04295604 31.17843129 -1.05493164 26.76757812 C-1.05992943 25.27017503 -1.0667299 23.77277673 -1.07543945 22.27539062 C-1.08770623 20.11066495 -1.09327397 17.94600435 -1.09765625 15.78125 C-1.10289307 14.48251953 -1.10812988 13.18378906 -1.11352539 11.84570312 C-0.9946608 7.81913327 -0.56026769 3.98584904 0 0 Z " fill="#C08929" transform="translate(190,248)"/>
<path d="M0 0 C0.66 0 1.32 0 2 0 C2 13.86 2 27.72 2 42 C-4.27 42 -10.54 42 -17 42 C-16.67 37.38 -16.34 32.76 -16 28 C-15.67 28 -15.34 28 -15 28 C-14.67 31.63 -14.34 35.26 -14 39 C-9.38 39 -4.76 39 0 39 C0 26.13 0 13.26 0 0 Z " fill="#A47B36" transform="translate(284,188)"/>
<path d="M0 0 C0.33 0 0.66 0 1 0 C1 11.55 1 23.1 1 35 C-11 35 -11 35 -14.359375 32.8125 C-15.14828125 31.884375 -15.9371875 30.95625 -16.75 30 C-17.56984375 29.071875 -18.3896875 28.14375 -19.234375 27.1875 C-20.10835938 26.1046875 -20.10835938 26.1046875 -21 25 C-20.34 24.67 -19.68 24.34 -19 24 C-16.96855359 24.93446535 -14.96466413 25.93224776 -13 27 C-13 27.66 -13 28.32 -13 29 C-10.525 29.99 -10.525 29.99 -8 31 C-8 31.66 -8 32.32 -8 33 C-6.02 33.33 -4.04 33.66 -2 34 C-2.01160156 33.41992188 -2.02320313 32.83984375 -2.03515625 32.2421875 C-2.04417969 31.46101563 -2.05320312 30.67984375 -2.0625 29.875 C-2.07410156 29.10929687 -2.08570313 28.34359375 -2.09765625 27.5546875 C-2 25 -2 25 -1.53125 22.3125 C-0.82757919 17.92490552 -0.6412178 13.56003666 -0.4375 9.125 C-0.39431641 8.24585938 -0.35113281 7.36671875 -0.30664062 6.4609375 C-0.20130661 4.30744203 -0.10022351 2.15373936 0 0 Z " fill="#895F1B" transform="translate(401,253)"/>
<path d="M0 0 C0.33 0 0.66 0 1 0 C1.18921089 27.76742644 1.18921089 27.76742644 0.625 41.1875 C0.59414307 42.05850342 0.56328613 42.92950684 0.53149414 43.8269043 C0.24170235 49.75829765 0.24170235 49.75829765 -2 52 C-2.05063836 45.07661048 -2.08570749 38.15326859 -2.10986328 31.22973633 C-2.11993155 28.87359838 -2.13358706 26.51747296 -2.15087891 24.16137695 C-2.17509076 20.77812614 -2.18647478 17.39504028 -2.1953125 14.01171875 C-2.20563507 12.95538742 -2.21595764 11.89905609 -2.22659302 10.81071472 C-2.22674408 9.82992447 -2.22689514 8.84913422 -2.22705078 7.83862305 C-2.231492 6.97480515 -2.23593323 6.11098724 -2.24050903 5.22099304 C-2 3 -2 3 0 0 Z " fill="#E8C16B" transform="translate(191,140)"/>
<path d="M0 0 C8.13439313 1.08741019 13.12300369 7.90375461 18 14 C18.763125 14.721875 19.52625 15.44375 20.3125 16.1875 C22 18 22 18 22 21 C21.34 21 20.68 21 20 21 C20 21.66 20 22.32 20 23 C19.01 23 18.02 23 17 23 C16.608125 21.7625 16.21625 20.525 15.8125 19.25 C14.34580203 15.25888917 12.50571204 13.46347333 9 11 C9 10.34 9 9.68 9 9 C8.01 9.33 7.02 9.66 6 10 C5.67 8.02 5.34 6.04 5 4 C4.360625 3.896875 3.72125 3.79375 3.0625 3.6875 C2.381875 3.460625 1.70125 3.23375 1 3 C0.67 2.01 0.34 1.02 0 0 Z " fill="#E3B85D" transform="translate(275,137)"/>
<path d="M0 0 C0.33 0 0.66 0 1 0 C1.02505701 4.33756144 1.04302559 8.67508251 1.05493164 13.01269531 C1.05990456 14.48275488 1.06668527 15.95280965 1.07543945 17.42285156 C1.12707848 26.32906499 0.9431858 35.13171416 0 44 C-2.44374591 40.33438113 -2.42371962 38.05933553 -2.6875 33.6875 C-2.77386719 32.39199219 -2.86023438 31.09648437 -2.94921875 29.76171875 C-2.99576118 26.31399861 -2.59963218 23.37852462 -2 20 C-1.93477127 17.70916711 -1.9141159 15.41664206 -1.9375 13.125 C-1.94652344 11.97257813 -1.95554688 10.82015625 -1.96484375 9.6328125 C-1.97644531 8.76398438 -1.98804688 7.89515625 -2 7 C-1.67 7 -1.34 7 -1 7 C-0.67 4.69 -0.34 2.38 0 0 Z " fill="#D09624" transform="translate(252,184)"/>
<path d="M0 0 C3.33646536 1.4163551 5.15544293 3.08171998 7.4375 5.875 C10.0762797 9.00432208 12.77362574 11.47122017 16 14 C16.8971875 15.1446875 16.8971875 15.1446875 17.8125 16.3125 C19.74796573 18.6903579 21.61531028 20.46320387 23.9375 22.4375 C27.3905455 25.38065654 30.21143737 28.42715413 33 32 C30.69 32 28.38 32 26 32 C25.87625 31.2575 25.7525 30.515 25.625 29.75 C25.02774174 27.12206365 24.47239526 25.24734013 23 23 C21.11683841 21.89163577 21.11683841 21.89163577 19 21 C16.75 19.5625 16.75 19.5625 15 18 C15 17.01 15 16.02 15 15 C14.236875 14.938125 13.47375 14.87625 12.6875 14.8125 C9.13396408 13.73817519 8.71089023 12.18847725 7 9 C6.01 8.34 5.02 7.68 4 7 C4 6.34 4 5.68 4 5 C2.68 4.34 1.36 3.68 0 3 C0 2.01 0 1.02 0 0 Z " fill="#9F7B30" transform="translate(328,256)"/>
<path d="M0 0 C1.57529969 2.95197464 2.66804755 5.85815922 3.625 9.0625 C4.01558594 10.34833984 4.01558594 10.34833984 4.4140625 11.66015625 C5 14 5 14 5 17 C3.35 15.35 1.7 13.7 0 12 C-0.433125 13.670625 -0.433125 13.670625 -0.875 15.375 C-2 19 -2 19 -4 21 C-7.95603129 22.52846663 -11.80752178 23.40107454 -16 24 C-14 22 -14 22 -10.5 20.125 C-7.5741814 18.50697974 -6.06052672 17.29941646 -5 14 C-4.34 14 -3.68 14 -3 14 C-2.86722656 13.32453125 -2.73445313 12.6490625 -2.59765625 11.953125 C-2.42105469 11.06109375 -2.24445313 10.1690625 -2.0625 9.25 C-1.80146484 7.92742187 -1.80146484 7.92742187 -1.53515625 6.578125 C-1.07631512 4.36764947 -0.56663926 2.18487932 0 0 Z " fill="#B39145" transform="translate(422,82)"/>
<path d="M0 0 C5.77659738 2.45640356 10.20208098 7.10680096 14 12 C14.83226322 15.12850751 14.59972773 16.76147023 14 20 C13.01 20 12.02 20 11 20 C11 19.01 11 18.02 11 17 C10.01 17.33 9.02 17.66 8 18 C7.87625 16.865625 7.7525 15.73125 7.625 14.5625 C7.41875 13.386875 7.2125 12.21125 7 11 C6.34 10.67 5.68 10.34 5 10 C5 9.34 5 8.68 5 8 C4.34 8 3.68 8 3 8 C2.67 6.35 2.34 4.7 2 3 C1.34 3 0.68 3 0 3 C0 2.01 0 1.02 0 0 Z " fill="#D7A949" transform="translate(297,156)"/>
<path d="M0 0 C0.66 0.33 1.32 0.66 2 1 C1.0625 3.3125 1.0625 3.3125 -1 6 C-5.455 7.485 -5.455 7.485 -10 9 C-10 27.81 -10 46.62 -10 66 C-10.33 66 -10.66 66 -11 66 C-11.25579741 58.57676022 -11.45076818 51.15448153 -11.56993389 43.72771454 C-11.62715748 40.27814744 -11.70462458 36.83161114 -11.82983398 33.38378906 C-11.9731373 29.41248988 -12.02575104 25.4423813 -12.07421875 21.46875 C-12.13099289 20.24136108 -12.18776703 19.01397217 -12.2462616 17.74938965 C-12.25231208 9.29748399 -12.25231208 9.29748399 -8.47793579 5.38696289 C-5.72923935 3.37512899 -2.99647123 1.61494126 0 0 Z " fill="#99865A" transform="translate(250,94)"/>
<path d="M0 0 C4.21165289 2.10582644 6.69283919 4.76262223 9.5703125 8.37890625 C11.09773544 10.25086359 11.09773544 10.25086359 14 12 C14 12.66 14 13.32 14 14 C14.5775 14.226875 15.155 14.45375 15.75 14.6875 C18 16 18 16 19.8125 18.3125 C22.07856104 21.09651785 24.41984694 23.11540749 27.25 25.3125 C28.14203125 26.00988281 29.0340625 26.70726562 29.953125 27.42578125 C30.62859375 27.94527344 31.3040625 28.46476562 32 29 C31.34 29.33 30.68 29.66 30 30 C27.5249829 28.88568235 25.32116581 27.41849022 23 26 C23 25.01 23 24.02 23 23 C22.01 22.67 21.02 22.34 20 22 C20 21.34 20 20.68 20 20 C19.01 20 18.02 20 17 20 C17 19.34 17 18.68 17 18 C16.01 17.67 15.02 17.34 14 17 C14 16.34 14 15.68 14 15 C13.34 15 12.68 15 12 15 C10.97803008 14.02246356 9.98020375 13.0194119 9 12 C8.01 11.34 7.02 10.68 6 10 C5.67 9.01 5.34 8.02 5 7 C4.34 6.71125 3.68 6.4225 3 6.125 C1 5 1 5 0.25 2.375 C0.1675 1.59125 0.085 0.8075 0 0 Z " fill="#B68D3E" transform="translate(363,218)"/>
<path d="M0 0 C0.25 5.625 0.25 5.625 -2 9 C-1.34 9.33 -0.68 9.66 0 10 C-3.83386136 10 -5.56424432 9.56005649 -9 8.125 C-9.845625 7.77695313 -10.69125 7.42890625 -11.5625 7.0703125 C-13.74740224 6.11091632 -15.87803676 5.09045333 -18 4 C-14.95559724 2.47779862 -11.77528014 2.61183824 -8.41015625 2.37890625 C-5.0061512 1.84375473 -3.57144195 0 0 0 Z " fill="#EBB140" transform="translate(416,103)"/>
<path d="M0 0 C0.99 0.33 1.98 0.66 3 1 C2 4 2 4 -2 7 C14.335 7.495 14.335 7.495 31 8 C31 8.33 31 8.66 31 9 C18.13 9 5.26 9 -8 9 C-8 8.01 -8 7.02 -8 6 C-6.35 5.34 -4.7 4.68 -3 4 C-3 3.34 -3 2.68 -3 2 C-2.01 1.34 -1.02 0.68 0 0 Z " fill="#D9A949" transform="translate(198,279)"/>
<path d="M0 0 C2.97 0.495 2.97 0.495 6 1 C6.33 2.32 6.66 3.64 7 5 C5.35 5.33 3.7 5.66 2 6 C2.00523682 6.6798999 2.01047363 7.3597998 2.01586914 8.06030273 C2.03685071 11.18602549 2.04972687 14.31173335 2.0625 17.4375 C2.07087891 18.50677734 2.07925781 19.57605469 2.08789062 20.67773438 C2.10684631 26.87624228 1.82063259 32.8549481 1 39 C0.67 39 0.34 39 0 39 C0 26.13 0 13.26 0 0 Z " fill="#EFBC57" transform="translate(268,131)"/>
<path d="M0 0 C2.16874252 0.50603992 3.99967627 0.99983813 6 2 C6 2.66 6 3.32 6 4 C6.66 4 7.32 4 8 4 C8.33 5.32 8.66 6.64 9 8 C10.32 8.33 11.64 8.66 13 9 C13 9.66 13 10.32 13 11 C13.969375 11.268125 14.93875 11.53625 15.9375 11.8125 C16.948125 12.204375 17.95875 12.59625 19 13 C19.33 13.99 19.66 14.98 20 16 C20.66 16.33 21.32 16.66 22 17 C21.67 18.32 21.34 19.64 21 21 C18.93627679 19.10548397 16.87399843 17.20943437 14.8125 15.3125 C14.23435547 14.78205078 13.65621094 14.25160156 13.06054688 13.70507812 C3.35414035 4.76640997 3.35414035 4.76640997 0 0 Z " fill="#473E2D" transform="translate(379,232)"/>
<path d="M0 0 C4.75 0.875 4.75 0.875 7 2 C7 2.99 7 3.98 7 5 C7.78375 5.12375 8.5675 5.2475 9.375 5.375 C12 6 12 6 14 8 C14.8563027 10.63233792 15.38929927 13.29546818 16 16 C11.34072645 13.18276483 8.46898437 10.26951923 5 6 C4.071875 5.2575 3.14375 4.515 2.1875 3.75 C1.465625 3.1725 0.74375 2.595 0 2 C0 1.34 0 0.68 0 0 Z " fill="#9F711C" transform="translate(320,219)"/>
<path d="M0 0 C0.33 0 0.66 0 1 0 C1.66 12.87 2.32 25.74 3 39 C1.68 38.67 0.36 38.34 -1 38 C-0.67 25.46 -0.34 12.92 0 0 Z " fill="#C79532" transform="translate(225,216)"/>
<path d="M0 0 C3.3 0 6.6 0 10 0 C9.625 2.8125 9.625 2.8125 8 6 C4.76691126 7.46131329 1.46470949 8.27126037 -2 9 C-1.34 6.03 -0.68 3.06 0 0 Z " fill="#F1B93E" transform="translate(416,103)"/>
<path d="M0 0 C2.8125 -0.3125 2.8125 -0.3125 6 0 C7.625 2.4375 7.625 2.4375 9 5 C9.66 5.165 10.32 5.33 11 5.5 C13 6 13 6 14.75 8.4375 C16 11 16 11 16 13 C11.51556505 12.14421026 8.97273379 9.56082611 5.75 6.5 C5.19570313 5.98824219 4.64140625 5.47648438 4.0703125 4.94921875 C2.68841168 3.65921773 1.34095108 2.33251743 0 1 C0 0.67 0 0.34 0 0 Z " fill="#AC781D" transform="translate(336,235)"/>
<path d="M0 0 C5.66079245 3.6199278 5.66079245 3.6199278 6.52734375 7.14550781 C6.66285571 9.66171854 6.62202267 12.10828245 6.5 14.625 C6.4896875 15.48351562 6.479375 16.34203125 6.46875 17.2265625 C6.31107955 23.53338068 6.31107955 23.53338068 4 27 C2.82170801 24.64341603 2.95585628 23.47426764 3.12109375 20.8671875 C3.16943359 20.06152344 3.21777344 19.25585938 3.26757812 18.42578125 C3.32365234 17.58402344 3.37972656 16.74226563 3.4375 15.875 C3.48970703 15.02550781 3.54191406 14.17601562 3.59570312 13.30078125 C3.72551378 11.20020876 3.8621174 9.10005809 4 7 C3.01 7 2.02 7 1 7 C0.67 4.69 0.34 2.38 0 0 Z " fill="#B48630" transform="translate(395,248)"/>
<path d="M0 0 C1.65 0 3.3 0 5 0 C6 4.75 6 4.75 6 7 C7.2375 7.7115625 7.2375 7.7115625 8.5 8.4375 C9.325 8.953125 10.15 9.46875 11 10 C11 10.99 11 11.98 11 13 C4.25 10.25 4.25 10.25 2 8 C2 7.01 2 6.02 2 5 C1.34 5 0.68 5 0 5 C0 3.35 0 1.7 0 0 Z " fill="#B47D18" transform="translate(314,208)"/>
<path d="M0 0 C2.72951023 0.37648417 3.76585665 0.71902799 5.5625 2.875 C6.036875 3.57625 6.51125 4.2775 7 5 C7.54140625 5.41121094 8.0828125 5.82242188 8.640625 6.24609375 C10 8 10 8 9.85546875 10.91796875 C9.63503906 11.99691406 9.41460937 13.07585937 9.1875 14.1875 C8.97480469 15.27417969 8.76210938 16.36085937 8.54296875 17.48046875 C8.36378906 18.31191406 8.18460937 19.14335937 8 20 C7.67 20 7.34 20 7 20 C6.74605469 18.89140625 6.49210937 17.7828125 6.23046875 16.640625 C5.88331822 15.1769633 5.53563385 13.71342813 5.1875 12.25 C4.9390332 11.15558594 4.9390332 11.15558594 4.68554688 10.0390625 C3.7276338 6.06281956 2.83975708 3.09199911 0 0 Z " fill="#DEB156" transform="translate(415,114)"/>
<path d="M0 0 C0.66 0 1.32 0 2 0 C-0.06645057 6.47487844 -0.06645057 6.47487844 -3 8.125 C-5.85351639 10.80017162 -5.6054753 13.18626123 -6 17 C-7.0625 19.9375 -7.0625 19.9375 -8 22 C-8.33 22 -8.66 22 -9 22 C-8.58815653 14.94185497 -8.02567091 8.75183192 -3.4375 3.0625 C-2 2 -2 2 0 2 C0 1.34 0 0.68 0 0 Z " fill="#2D200B" transform="translate(432,112)"/>
<path d="M0 0 C0.33 0 0.66 0 1 0 C1.18451025 16.8929385 1.18451025 16.8929385 0 24 C-2.25998595 20.40537669 -2.20868087 17.43404325 -2.125 13.25 C-2.09792969 11.49429688 -2.09792969 11.49429688 -2.0703125 9.703125 C-2.04710937 8.81109375 -2.02390625 7.9190625 -2 7 C-1.67 7 -1.34 7 -1 7 C-0.67 4.69 -0.34 2.38 0 0 Z " fill="#DDA233" transform="translate(252,184)"/>
<path d="M0 0 C0 0.99 0 1.98 0 3 C-0.7425 3.268125 -1.485 3.53625 -2.25 3.8125 C-4.87046481 4.94406435 -6.7434989 6.28817158 -9 8 C-9.66 8 -10.32 8 -11 8 C-10.67 6.35 -10.34 4.7 -10 3 C-9.34 3 -8.68 3 -8 3 C-8 2.34 -8 1.68 -8 1 C-2.25 -1.125 -2.25 -1.125 0 0 Z " fill="#EBC566" transform="translate(208,130)"/>
<path d="M0 0 C0.66 0.33 1.32 0.66 2 1 C2 4.3 2 7.6 2 11 C-2.62 11 -7.24 11 -12 11 C-10 9 -10 9 -8.08984375 8.83984375 C-7.37957031 8.87207031 -6.66929687 8.90429688 -5.9375 8.9375 C-4.638125 8.958125 -3.33875 8.97875 -2 9 C-0.50256881 7.50256881 -0.66797307 6.01175761 -0.4375 3.9375 C-0.293125 2.638125 -0.14875 1.33875 0 0 Z " fill="#C38920" transform="translate(282,216)"/>
<path d="M0 0 C4.38663541 2.95254306 8.04817729 5.51322947 11 10 C11 10.99 11 11.98 11 13 C7.7 13 4.4 13 1 13 C1 12.67 1 12.34 1 12 C3.64 12 6.28 12 9 12 C9 11.34 9 10.68 9 10 C8.01 10 7.02 10 6 10 C4.94228261 8.36935236 3.94726954 6.69719127 3 5 C2.443125 4.443125 1.88625 3.88625 1.3125 3.3125 C0.879375 2.879375 0.44625 2.44625 0 2 C0 1.34 0 0.68 0 0 Z " fill="#B98013" transform="translate(344,274)"/>
<path d="M0 0 C0.66 0 1.32 0 2 0 C2 0.66 2 1.32 2 2 C3.32 2 4.64 2 6 2 C6 4.31 6 6.62 6 9 C5.01 9 4.02 9 3 9 C3 8.01 3 7.02 3 6 C2.01 6.33 1.02 6.66 0 7 C0 4.69 0 2.38 0 0 Z " fill="#E4AA2E" transform="translate(305,167)"/>
<path d="M0 0 C2.16874252 0.50603992 3.99967627 0.99983813 6 2 C6 2.66 6 3.32 6 4 C6.66 4 7.32 4 8 4 C8.33 5.32 8.66 6.64 9 8 C9.66 8 10.32 8 11 8 C11.33 9.32 11.66 10.64 12 12 C6.63885521 8.53102396 3.46897604 5.36114479 0 0 Z " fill="#55482A" transform="translate(379,232)"/>
<path d="M0 0 C0.66 0.33 1.32 0.66 2 1 C2 2.65 2 4.3 2 6 C-0.49064888 6.68707555 -2.37886292 7 -5 7 C-5.66 7.66 -6.32 8.32 -7 9 C-7 7.68 -7 6.36 -7 5 C-5.46875 3.515625 -5.46875 3.515625 -3.5 2.25 C-2.8503125 1.82203125 -2.200625 1.3940625 -1.53125 0.953125 C-1.0259375 0.63859375 -0.520625 0.3240625 0 0 Z " fill="#C7A75C" transform="translate(196,134)"/>
<path d="M0 0 C2.9375 0.8125 2.9375 0.8125 6 2 C6.33 2.99 6.66 3.98 7 5 C7.99 5 8.98 5 10 5 C10 6.32 10 7.64 10 9 C10.66 9 11.32 9 12 9 C11.67 9.66 11.34 10.32 11 11 C2.04651163 4.09302326 2.04651163 4.09302326 0 0 Z " fill="#8F6622" transform="translate(362,260)"/>
<path d="M0 0 C1.45922693 0.11409593 2.91740598 0.24165544 4.375 0.375 C5.59316406 0.47941406 5.59316406 0.47941406 6.8359375 0.5859375 C9 1 9 1 11 3 C7.37 3.66 3.74 4.32 0 5 C0 3.33333333 0 1.66666667 0 0 Z " fill="#BC9D55" transform="translate(437,105)"/>
<path d="M0 0 C1.67542976 0.28604898 3.34385343 0.61781233 5 1 C5.33 1.99 5.66 2.98 6 4 C4.68 4 3.36 4 2 4 C1.67 5.98 1.34 7.96 1 10 C-1 8 -1 8 -1.1875 4.4375 C-1 1 -1 1 0 0 Z " fill="#C38E20" transform="translate(282,184)"/>
<path d="M0 0 C6.88016529 1.98760331 6.88016529 1.98760331 9 5 C9.6875 7.6875 9.6875 7.6875 10 10 C2.51708428 3.84965831 2.51708428 3.84965831 0 0 Z " fill="#836121" transform="translate(380,277)"/>
<path d="M0 0 C4.75 0.875 4.75 0.875 7 2 C7.625 5.0625 7.625 5.0625 8 8 C6.66102417 7.04956626 5.32894573 6.08940853 4 5.125 C3.2575 4.59132812 2.515 4.05765625 1.75 3.5078125 C1.1725 3.01023438 0.595 2.51265625 0 2 C0 1.34 0 0.68 0 0 Z " fill="#966C1F" transform="translate(320,219)"/>
<path d="M0 0 C3.08494591 1.0283153 4.08268479 1.47262996 6 4 C6.6875 7.1875 6.6875 7.1875 7 10 C6.01 10.33 5.02 10.66 4 11 C3.87625 10.360625 3.7525 9.72125 3.625 9.0625 C3.41875 8.381875 3.2125 7.70125 3 7 C2.34 6.67 1.68 6.34 1 6 C0.375 2.9375 0.375 2.9375 0 0 Z " fill="#AE842A" transform="translate(316,173)"/>
<path d="M0 0 C1.5 1.3125 1.5 1.3125 3 3 C3 3.99 3 4.98 3 6 C2.34 6 1.68 6 1 6 C1 6.66 1 7.32 1 8 C0.01 8 -0.98 8 -2 8 C-2.33 5.69 -2.66 3.38 -3 1 C-2.34 1 -1.68 1 -1 1 C-0.67 0.67 -0.34 0.34 0 0 Z " fill="#E6B54B" transform="translate(294,152)"/>
<path d="M0 0 C0 0.99 0 1.98 0 3 C1.65 3 3.3 3 5 3 C5.33 3.99 5.66 4.98 6 6 C4.41531323 5.54636829 2.83230076 5.08688548 1.25 4.625 C0.36828125 4.36976562 -0.5134375 4.11453125 -1.421875 3.8515625 C-3.76080572 3.0790066 -5.83442562 2.16374324 -8 1 C-5.29120665 -0.35439668 -2.99066732 -0.06501451 0 0 Z " fill="#BF9E59" transform="translate(406,106)"/>
<path d="M0 0 C1.98 0 3.96 0 6 0 C6.99 1.98 7.98 3.96 9 6 C4.58763974 6 3.21615077 3.9302707 0 1 C0 0.67 0 0.34 0 0 Z " fill="#9D6F21" transform="translate(336,235)"/>
<path d="M0 0 C0.625 1.875 0.625 1.875 1 4 C-2.74071102 7.74071102 -7.91361421 8.27337346 -13 9 C-10.37086349 6.37086349 -7.51111841 5.46793222 -4.09375 4.09765625 C-1.68633336 3.04881299 -1.68633336 3.04881299 0 0 Z " fill="#C89D42" transform="translate(419,97)"/>
<path d="M0 0 C0.66 0.33 1.32 0.66 2 1 C0.1337839 4.54581059 -1.1340672 6.6710856 -5 8 C-5.99 8 -6.98 8 -8 8 C-6.49776416 3.79373966 -3.71449966 2.26099979 0 0 Z " fill="#B2974B" transform="translate(250,94)"/>
<path d="M0 0 C2.31 0 4.62 0 7 0 C6.938125 0.763125 6.87625 1.52625 6.8125 2.3125 C6.74101915 5.04525312 6.74101915 5.04525312 8.5 6.8125 C8.995 7.204375 9.49 7.59625 10 8 C9.67 8.66 9.34 9.32 9 10 C7.62437146 8.71034824 6.29233607 7.37310707 5 6 C5 5.34 5 4.68 5 4 C4.360625 3.71125 3.72125 3.4225 3.0625 3.125 C1 2 1 2 0 0 Z " fill="#52482F" transform="translate(363,217)"/>
<path d="M0 0 C2.31 0.66 4.62 1.32 7 2 C7.33 3.65 7.66 5.3 8 7 C8.66 7 9.32 7 10 7 C9.67 7.66 9.34 8.32 9 9 C5.42589203 6.31941902 2.68058098 3.57410797 0 0 Z " fill="#966F20" transform="translate(306,206)"/>
<path d="M0 0 C0.99 0.495 0.99 0.495 2 1 C2 1.66 2 2.32 2 3 C2.5775 3.061875 3.155 3.12375 3.75 3.1875 C6.88690987 4.32027301 8.09167504 6.34197595 10 9 C9.01 9.495 9.01 9.495 8 10 C8 9.34 8 8.68 8 8 C6.8553125 7.9071875 6.8553125 7.9071875 5.6875 7.8125 C3 7 3 7 1.1875 4.5625 C0 2 0 2 0 0 Z " fill="#EEC163" transform="translate(285,145)"/>
<path d="M0 0 C-0.66 1.65 -1.32 3.3 -2 5 C-1.34 5.33 -0.68 5.66 0 6 C-1.32 6 -2.64 6 -4 6 C-4.33 5.01 -4.66 4.02 -5 3 C-6.65 2.67 -8.3 2.34 -10 2 C-10 1.67 -10 1.34 -10 1 C-2.25 0 -2.25 0 0 0 Z " fill="#E2B34A" transform="translate(416,107)"/>
<path d="M0 0 C2.97 0.495 2.97 0.495 6 1 C6.33 2.32 6.66 3.64 7 5 C6.21625 4.814375 5.4325 4.62875 4.625 4.4375 C2.02910225 3.74037734 2.02910225 3.74037734 0 5 C0 3.35 0 1.7 0 0 Z " fill="#E0B554" transform="translate(268,131)"/>
<path d="M0 0 C1.32 0 2.64 0 4 0 C4 0.66 4 1.32 4 2 C5.32 2 6.64 2 8 2 C8 3.32 8 4.64 8 6 C8.66 6 9.32 6 10 6 C9.67 6.66 9.34 7.32 9 8 C7.49712782 6.85793642 5.99776716 5.71125043 4.5 4.5625 C3.6646875 3.92441406 2.829375 3.28632813 1.96875 2.62890625 C1.3190625 2.09136719 0.669375 1.55382812 0 1 C0 0.67 0 0.34 0 0 Z " fill="#624F2E" transform="translate(353,209)"/>
<path d="M0 0 C2.64 0 5.28 0 8 0 C8 1.98 8 3.96 8 6 C6.02 4.68 4.04 3.36 2 2 C1.01 2.495 1.01 2.495 0 3 C0 2.01 0 1.02 0 0 Z " fill="#DA9C2B" transform="translate(285,184)"/>
<path d="M0 0 C1.65 0 3.3 0 5 0 C5.33 1.65 5.66 3.3 6 5 C5.34 5 4.68 5 4 5 C4 4.34 4 3.68 4 3 C3.01 3.33 2.02 3.66 1 4 C0.67 2.68 0.34 1.36 0 0 Z " fill="#C58213" transform="translate(314,208)"/>
<path d="M0 0 C0 2.64 0 5.28 0 8 C-0.99 8 -1.98 8 -3 8 C-3 5.69 -3 3.38 -3 1 C-1 0 -1 0 0 0 Z " fill="#FCC758" transform="translate(252,128)"/>
<path d="M0 0 C-0.33 1.32 -0.66 2.64 -1 4 C-1.66 4 -2.32 4 -3 4 C-3 4.66 -3 5.32 -3 6 C-4.32 6 -5.64 6 -7 6 C-5.52522876 2.59668175 -4.14385429 0 0 0 Z " fill="#BF8317" transform="translate(198,277)"/>
<path d="M0 0 C3.94139078 1.66751148 6.7892812 4.22710649 10 7 C9.01 7.33 8.02 7.66 7 8 C4.8125 6.6875 4.8125 6.6875 3 5 C3 4.34 3 3.68 3 3 C2.01 2.67 1.02 2.34 0 2 C0 1.34 0 0.68 0 0 Z " fill="#BF8F3A" transform="translate(336,194)"/>
<path d="M0 0 C1.98 1.65 3.96 3.3 6 5 C5.67 5.99 5.34 6.98 5 8 C4.38125 7.525625 3.7625 7.05125 3.125 6.5625 C1.09294454 4.97582559 1.09294454 4.97582559 -1 4 C-0.67 2.68 -0.34 1.36 0 0 Z " fill="#CEA340" transform="translate(311,169)"/>
<path d="M0 0 C0.66 0 1.32 0 2 0 C1.34 3.96 0.68 7.92 0 12 C-0.33 12 -0.66 12 -1 12 C-1.2226746 10.56465159 -1.42761906 9.12654475 -1.625 7.6875 C-1.74101562 6.88699219 -1.85703125 6.08648437 -1.9765625 5.26171875 C-2 3 -2 3 0 0 Z " fill="#C2A259" transform="translate(423,122)"/>
<path d="M0 0 C5.75 1.625 5.75 1.625 8 5 C7.67 5.99 7.34 6.98 7 8 C6.401875 7.236875 5.80375 6.47375 5.1875 5.6875 C3.53040668 3.6516425 1.89702326 1.8021721 0 0 Z " fill="#A37A2B" transform="translate(298,198)"/>
<path d="M0 0 C1.98 1.65 3.96 3.3 6 5 C4.68 5.33 3.36 5.66 2 6 C2 5.34 2 4.68 2 4 C1.01 4 0.02 4 -1 4 C-0.67 2.68 -0.34 1.36 0 0 Z " fill="#CDA345" transform="translate(305,163)"/>
<path d="M0 0 C3.37503669 1.1858237 5.64722731 2.27573689 8 5 C7.67 5.99 7.34 6.98 7 8 C6.67 7.01 6.34 6.02 6 5 C4.67532254 4.3162955 3.34136367 3.65035814 2 3 C1.34 2.01 0.68 1.02 0 0 Z " fill="#A4823A" transform="translate(345,274)"/>
<path d="M0 0 C0 0.99 0 1.98 0 3 C-0.66 3 -1.32 3 -2 3 C-2 3.66 -2 4.32 -2 5 C-2.99 5.33 -3.98 5.66 -5 6 C-4.67 4.35 -4.34 2.7 -4 1 C-2.68 0.67 -1.36 0.34 0 0 Z " fill="#C68C1B" transform="translate(213,264)"/>
<path d="M0 0 C0.99 0.33 1.98 0.66 3 1 C2.67 2.32 2.34 3.64 2 5 C0.35 4.67 -1.3 4.34 -3 4 C-2.01 2.68 -1.02 1.36 0 0 Z " fill="#E4AD3D" transform="translate(205,275)"/>
<path d="M0 0 C0.33 1.32 0.66 2.64 1 4 C-0.32 4.33 -1.64 4.66 -3 5 C-3.33 3.68 -3.66 2.36 -4 1 C-2 0 -2 0 0 0 Z " fill="#D18E18" transform="translate(303,193)"/>
<path d="M0 0 C0.78375 0.04125 1.5675 0.0825 2.375 0.125 C1.385 0.62 1.385 0.62 0.375 1.125 C0.375 1.785 0.375 2.445 0.375 3.125 C-2.125 4.75 -2.125 4.75 -4.625 6.125 C-4.625 1.71963177 -4.59063093 0.21860147 0 0 Z " fill="#CBA554" transform="translate(431.625,110.875)"/>
<path d="M0 0 C1.99097846 2.98646769 2.94124926 5.59687262 4 9 C2.35 7.68 0.7 6.36 -1 5 C-0.67 3.35 -0.34 1.7 0 0 Z " fill="#A6853A" transform="translate(424,90)"/>
</svg>
